<svg xmlns="http://www.w3.org/2000/svg" xmlns:xlink="http://www.w3.org/1999/xlink" width="1500" zoomAndPan="magnify" viewBox="0 0 1125 299.999988" height="400" preserveAspectRatio="xMidYMid meet" version="1.0"><defs><g/></defs><g fill="#001a3d" fill-opacity="1"><g transform="translate(26.080717, 229.251207)"><g><path d="M 126.421875 -96.53125 C 136.742188 -85.207031 141.90625 -71.375 141.90625 -55.03125 C 141.90625 -38.695312 136.742188 -24.90625 126.421875 -13.65625 C 116.097656 -2.40625 102.984375 3.21875 87.078125 3.21875 C 72.453125 3.21875 60.410156 -2.007812 50.953125 -12.46875 L 50.53125 -12.46875 L 50.53125 0 L 12.90625 0 L 12.90625 -184.90625 L 50.953125 -184.90625 L 50.953125 -99.765625 C 60.410156 -108.929688 72.453125 -113.515625 87.078125 -113.515625 C 102.984375 -113.515625 116.097656 -107.851562 126.421875 -96.53125 Z M 94.390625 -36.4375 C 99.117188 -41.238281 101.484375 -47.4375 101.484375 -55.03125 C 101.484375 -62.632812 99.007812 -68.875 94.0625 -73.75 C 89.113281 -78.625 82.988281 -81.0625 75.6875 -81.0625 C 68.519531 -81.0625 62.460938 -78.625 57.515625 -73.75 C 52.566406 -68.875 50.09375 -62.640625 50.09375 -55.046875 C 50.09375 -47.585938 52.492188 -41.421875 57.296875 -36.546875 C 62.097656 -31.671875 68.226562 -29.234375 75.6875 -29.234375 C 83.425781 -29.234375 89.660156 -31.632812 94.390625 -36.4375 Z M 94.390625 -36.4375 "/></g></g></g><g fill="#001a3d" fill-opacity="1"><g transform="translate(148.197464, 229.251207)"><g><path d="M 16.546875 -171.78125 C 20.992188 -176.226562 26.296875 -178.453125 32.453125 -178.453125 C 38.617188 -178.453125 43.925781 -176.226562 48.375 -171.78125 C 52.820312 -167.34375 55.046875 -162.039062 55.046875 -155.875 C 55.046875 -149.707031 52.820312 -144.398438 48.375 -139.953125 C 43.925781 -135.515625 38.617188 -133.296875 32.453125 -133.296875 C 26.296875 -133.296875 20.992188 -135.515625 16.546875 -139.953125 C 12.109375 -144.398438 9.890625 -149.707031 9.890625 -155.875 C 9.890625 -162.039062 12.109375 -167.34375 16.546875 -171.78125 Z M 12.90625 -110.296875 L 12.90625 0 L 50.953125 0 L 50.953125 -110.296875 Z M 12.90625 -110.296875 "/></g></g></g><g fill="#001a3d" fill-opacity="1"><g transform="translate(188.401265, 229.251207)"><g><path d="M 119.546875 -110.296875 L 64.9375 -29.03125 L 115.234375 -29.03125 L 115.234375 0 L 1.078125 0 L 55.6875 -81.265625 L 10.109375 -81.265625 L 10.109375 -110.296875 Z M 119.546875 -110.296875 "/></g></g></g><g fill="#001a3d" fill-opacity="1"><g transform="translate(284.288681, 229.251207)"><g><path d="M 20.421875 -13.65625 C 10.097656 -24.90625 4.9375 -38.695312 4.9375 -55.03125 C 4.9375 -71.375 10.097656 -85.207031 20.421875 -96.53125 C 30.742188 -107.851562 43.859375 -113.515625 59.765625 -113.515625 C 74.390625 -113.515625 86.429688 -108.929688 95.890625 -99.765625 L 95.890625 -184.90625 L 133.9375 -184.90625 L 133.9375 0 L 96.3125 0 L 96.3125 -12.46875 L 95.890625 -12.46875 C 86.429688 -2.007812 74.390625 3.21875 59.765625 3.21875 C 43.859375 3.21875 30.742188 -2.40625 20.421875 -13.65625 Z M 52.78125 -73.75 C 47.832031 -68.875 45.359375 -62.632812 45.359375 -55.03125 C 45.359375 -47.4375 47.722656 -41.238281 52.453125 -36.4375 C 57.191406 -31.632812 63.429688 -29.234375 71.171875 -29.234375 C 78.617188 -29.234375 84.742188 -31.671875 89.546875 -36.546875 C 94.347656 -41.421875 96.75 -47.585938 96.75 -55.046875 C 96.75 -62.640625 94.273438 -68.875 89.328125 -73.75 C 84.390625 -78.625 78.335938 -81.0625 71.171875 -81.0625 C 63.859375 -81.0625 57.726562 -78.625 52.78125 -73.75 Z M 52.78125 -73.75 "/></g></g></g><g fill="#001a3d" fill-opacity="1"><g transform="translate(406.405439, 229.251207)"><g><path d="M 20.421875 -13.65625 C 10.097656 -24.90625 4.9375 -38.695312 4.9375 -55.03125 C 4.9375 -71.375 10.097656 -85.207031 20.421875 -96.53125 C 30.742188 -107.851562 43.859375 -113.515625 59.765625 -113.515625 C 74.390625 -113.515625 86.429688 -108.929688 95.890625 -99.765625 L 95.890625 -110.296875 L 133.9375 -110.296875 L 133.9375 0 L 96.3125 0 L 96.3125 -12.46875 L 95.890625 -12.46875 C 86.429688 -2.007812 74.390625 3.21875 59.765625 3.21875 C 43.859375 3.21875 30.742188 -2.40625 20.421875 -13.65625 Z M 52.78125 -73.75 C 47.832031 -68.875 45.359375 -62.632812 45.359375 -55.03125 C 45.359375 -47.4375 47.722656 -41.238281 52.453125 -36.4375 C 57.191406 -31.632812 63.429688 -29.234375 71.171875 -29.234375 C 78.617188 -29.234375 84.742188 -31.671875 89.546875 -36.546875 C 94.347656 -41.421875 96.75 -47.585938 96.75 -55.046875 C 96.75 -62.640625 94.273438 -68.875 89.328125 -73.75 C 84.390625 -78.625 78.335938 -81.0625 71.171875 -81.0625 C 63.859375 -81.0625 57.726562 -78.625 52.78125 -73.75 Z M 52.78125 -73.75 "/></g></g></g><g fill="#001a3d" fill-opacity="1"><g transform="translate(528.522174, 229.251207)"><g><path d="M 19.34375 -110.296875 L 19.34375 -151.359375 L 57.40625 -151.359375 L 57.40625 -110.296875 L 80.625 -110.296875 L 80.625 -81.265625 L 57.40625 -81.265625 L 57.40625 -46.21875 C 57.40625 -36.039062 60.269531 -30.953125 66 -30.953125 C 67.4375 -30.953125 68.941406 -31.238281 70.515625 -31.8125 C 72.097656 -32.394531 73.316406 -32.972656 74.171875 -33.546875 L 75.46875 -34.40625 L 84.921875 -3.65625 C 76.753906 0.925781 67.4375 3.21875 56.96875 3.21875 C 49.800781 3.21875 43.640625 1.96875 38.484375 -0.53125 C 33.328125 -3.039062 29.421875 -6.410156 26.765625 -10.640625 C 24.117188 -14.867188 22.21875 -19.3125 21.0625 -23.96875 C 19.914062 -28.625 19.34375 -33.609375 19.34375 -38.921875 L 19.34375 -81.265625 L 3.4375 -81.265625 L 3.4375 -110.296875 Z M 19.34375 -110.296875 "/></g></g></g><g fill="#001a3d" fill-opacity="1"><g transform="translate(588.720426, 229.251207)"><g><path d="M 20.421875 -13.65625 C 10.097656 -24.90625 4.9375 -38.695312 4.9375 -55.03125 C 4.9375 -71.375 10.097656 -85.207031 20.421875 -96.53125 C 30.742188 -107.851562 43.859375 -113.515625 59.765625 -113.515625 C 74.390625 -113.515625 86.429688 -108.929688 95.890625 -99.765625 L 95.890625 -110.296875 L 133.9375 -110.296875 L 133.9375 0 L 96.3125 0 L 96.3125 -12.46875 L 95.890625 -12.46875 C 86.429688 -2.007812 74.390625 3.21875 59.765625 3.21875 C 43.859375 3.21875 30.742188 -2.40625 20.421875 -13.65625 Z M 52.78125 -73.75 C 47.832031 -68.875 45.359375 -62.632812 45.359375 -55.03125 C 45.359375 -47.4375 47.722656 -41.238281 52.453125 -36.4375 C 57.191406 -31.632812 63.429688 -29.234375 71.171875 -29.234375 C 78.617188 -29.234375 84.742188 -31.671875 89.546875 -36.546875 C 94.347656 -41.421875 96.75 -47.585938 96.75 -55.046875 C 96.75 -62.640625 94.273438 -68.875 89.328125 -73.75 C 84.390625 -78.625 78.335938 -81.0625 71.171875 -81.0625 C 63.859375 -81.0625 57.726562 -78.625 52.78125 -73.75 Z M 52.78125 -73.75 "/></g></g></g><g fill="#001a3d" fill-opacity="1"><g transform="translate(710.837162, 229.251207)"><g><path d="M 19.34375 -110.296875 L 19.34375 -151.359375 L 57.40625 -151.359375 L 57.40625 -110.296875 L 80.625 -110.296875 L 80.625 -81.265625 L 57.40625 -81.265625 L 57.40625 -46.21875 C 57.40625 -36.039062 60.269531 -30.953125 66 -30.953125 C 67.4375 -30.953125 68.941406 -31.238281 70.515625 -31.8125 C 72.097656 -32.394531 73.316406 -32.972656 74.171875 -33.546875 L 75.46875 -34.40625 L 84.921875 -3.65625 C 76.753906 0.925781 67.4375 3.21875 56.96875 3.21875 C 49.800781 3.21875 43.640625 1.96875 38.484375 -0.53125 C 33.328125 -3.039062 29.421875 -6.410156 26.765625 -10.640625 C 24.117188 -14.867188 22.21875 -19.3125 21.0625 -23.96875 C 19.914062 -28.625 19.34375 -33.609375 19.34375 -38.921875 L 19.34375 -81.265625 L 3.4375 -81.265625 L 3.4375 -110.296875 Z M 19.34375 -110.296875 "/></g></g></g><g fill="#001a3d" fill-opacity="1"><g transform="translate(771.035414, 229.251207)"><g><path d="M 124.484375 -49.875 L 44.5 -49.875 C 44.5 -42.132812 47.007812 -36.398438 52.03125 -32.671875 C 57.050781 -28.953125 62.5 -27.09375 68.375 -27.09375 C 74.53125 -27.09375 79.398438 -27.914062 82.984375 -29.5625 C 86.566406 -31.207031 90.65625 -34.46875 95.25 -39.34375 L 122.765625 -25.578125 C 111.296875 -6.378906 92.234375 3.21875 65.578125 3.21875 C 48.953125 3.21875 34.6875 -2.472656 22.78125 -13.859375 C 10.882812 -25.253906 4.9375 -38.976562 4.9375 -55.03125 C 4.9375 -71.09375 10.882812 -84.851562 22.78125 -96.3125 C 34.6875 -107.78125 48.953125 -113.515625 65.578125 -113.515625 C 83.066406 -113.515625 97.289062 -108.460938 108.25 -98.359375 C 119.21875 -88.253906 124.703125 -73.816406 124.703125 -55.046875 C 124.703125 -52.460938 124.628906 -50.738281 124.484375 -49.875 Z M 45.578125 -70.953125 L 87.5 -70.953125 C 86.644531 -76.679688 84.390625 -81.085938 80.734375 -84.171875 C 77.078125 -87.253906 72.382812 -88.796875 66.65625 -88.796875 C 60.34375 -88.796875 55.320312 -87.144531 51.59375 -83.84375 C 47.875 -80.550781 45.867188 -76.253906 45.578125 -70.953125 Z M 45.578125 -70.953125 "/></g></g></g><g fill="#001a3d" fill-opacity="1"><g transform="translate(875.952596, 229.251207)"><g><path d="M 71.59375 -82.34375 C 64.425781 -82.34375 58.257812 -79.691406 53.09375 -74.390625 C 47.9375 -69.085938 45.359375 -62.707031 45.359375 -55.25 C 45.359375 -47.65625 47.9375 -41.207031 53.09375 -35.90625 C 58.257812 -30.601562 64.425781 -27.953125 71.59375 -27.953125 C 75.03125 -27.953125 78.289062 -28.378906 81.375 -29.234375 C 84.457031 -30.097656 86.71875 -30.957031 88.15625 -31.8125 L 90.078125 -33.109375 L 102.984375 -6.671875 C 101.984375 -5.953125 100.585938 -5.050781 98.796875 -3.96875 C 97.003906 -2.894531 92.914062 -1.429688 86.53125 0.421875 C 80.15625 2.285156 73.3125 3.21875 66 3.21875 C 49.800781 3.21875 35.570312 -2.472656 23.3125 -13.859375 C 11.0625 -25.253906 4.9375 -38.910156 4.9375 -54.828125 C 4.9375 -70.878906 11.0625 -84.671875 23.3125 -96.203125 C 35.570312 -107.742188 49.800781 -113.515625 66 -113.515625 C 73.3125 -113.515625 80.046875 -112.65625 86.203125 -110.9375 C 92.367188 -109.21875 96.742188 -107.5 99.328125 -105.78125 L 102.984375 -103.203125 L 90.078125 -77.1875 C 85.347656 -80.625 79.1875 -82.34375 71.59375 -82.34375 Z M 71.59375 -82.34375 "/></g></g></g><g fill="#001a3d" fill-opacity="1"><g transform="translate(956.790357, 229.251207)"><g><path d="M 12.90625 0 L 12.90625 -184.90625 L 50.953125 -184.90625 L 50.953125 -98.6875 L 51.390625 -98.6875 C 61.273438 -108.570312 71.804688 -113.515625 82.984375 -113.515625 C 88.429688 -113.515625 93.84375 -112.796875 99.21875 -111.359375 C 104.59375 -109.929688 109.753906 -107.710938 114.703125 -104.703125 C 119.648438 -101.691406 123.660156 -97.425781 126.734375 -91.90625 C 129.816406 -86.394531 131.359375 -79.984375 131.359375 -72.671875 L 131.359375 0 L 93.3125 0 L 93.3125 -62.34375 C 93.3125 -68.082031 91.484375 -73.097656 87.828125 -77.390625 C 84.171875 -81.691406 79.40625 -83.84375 73.53125 -83.84375 C 67.800781 -83.84375 62.601562 -81.617188 57.9375 -77.171875 C 53.28125 -72.734375 50.953125 -67.789062 50.953125 -62.34375 L 50.953125 0 Z M 12.90625 0 "/></g></g></g></svg>